<?xml version="1.0" encoding="utf-8"?>
<!-- Generator: Adobe Illustrator 27.1.1, SVG Export Plug-In . SVG Version: 6.00 Build 0)  -->
<svg version="1.1" id="Layer_1" xmlns="http://www.w3.org/2000/svg" xmlns:xlink="http://www.w3.org/1999/xlink" x="0px" y="0px"
	 viewBox="0 0 450.6 732" style="enable-background:new 0 0 450.6 732;" xml:space="preserve">
<style type="text/css">
	.st0{fill-rule:evenodd;clip-rule:evenodd;fill:#A9B665;}
</style>
<g id="Capa_2">
	<g id="Capa_1-2">
		<g id="Capa_2-2">
			<g id="Capa_1-2-2">
				<path class="st0" d="M217.1,321.8h17.2v0.8h3v0.8l5.2,0.8v0.8h1.5v0.8h2.2v0.8h1.5v0.8h1.5l0.8,1.5h1.5l0.8,1.5h1.5l2.2,3h1.5
					l0.8,1.5h0.8v1.5l4.5,3.8v1.5l2.2,1.5l0.8,3h0.8l1.5,4.5h0.8l0.8,4.5h0.8v2.2h0.8l0.8,18h-0.8v4.5h-0.8v2.2h-0.8v2.2h-0.8v2.2
					h-0.8l-1.5,4.5h-0.8l-0.8,3l-2.2,1.5v1.5l-3,2.2v1.5l-1.5,0.8v0.8l-2.2,0.8l-3,3.8h-1.5l-0.8,1.5h-1.5l-0.8,1.5l-4.5,1.5v0.8
					h-1.5v0.8h-2.2v0.8h-2.2v0.8h-3v0.8h-3.8v0.8c-4.8,1.4-19.7-1-22.5-2.2v-0.8h-1.5v-0.8h-2.2V411h-1.5v-0.8h-1.5l-0.8-1.5l-3-0.8
					l-1.5-2.2h-1.5l-3-3.8l-5.2-4.5c-6.1-8.6-12.9-24.5-8.2-39l0.8-6c3.7-9.5,12.1-19.6,20.2-24.8l3-0.8V326l3-0.8v-0.8h2.2V324h1.5
					v-0.8C212.6,322.3,215.4,323.2,217.1,321.8z"/>
				<path class="st0" d="M445.1,321c0.2-9.6-10.2-33.4-12-40.5c-1.7,0.7-0.6-3.7-2.2-3V276h-0.8v-2.2h-0.8c-0.8-0.2-0.7-5.5-2.2-4.5
					v-1.5h-0.8c0-1.4-0.7-3.4-2.2-3.8v-1.5h-0.8V261h-0.8v-1.5c-1.2,0.4-0.5-1-0.8-1.5c-1.7,0-2.6-4.1-3-5.2
					c-1.2,0.6-1.1-1.8-1.5-2.2l-1.5-0.8c-0.6-0.2-0.1-3.9-1.5-3l-0.8-2.2l-1.5-0.8v-1.5l-2.2-1.5v-1.5l-1.5-0.8V237l-1.5-0.8
					c-0.5-1.4-1.4-3.3-3-3.8c0.6-1.5-2-3-3-3.8c0.8-2.4-3.8-2.9-3-5.2l-6-5.2c1.1-1.7-3.9-4.3-4.5-5.2c-1.9,0.2-8.3-11.7-10.5-9.8
					l-4.5-5.2c-1.5,0.8-3.7-2.9-4.5-3.8c-1.6,0.8-3-2.2-3.8-3c-1.7,0.8-2.2-1.4-3-2.2c-1.2-0.5-2.8-0.8-3-2.2h-1.5
					c-0.7-0.9-0.5-1.9-2.2-1.5c-1.8-3.6-2.7-1-3.8-3.8c-1.1-0.6-3.6-0.3-3.8-2.2c-1.3,0.1-1.9-0.3-2.2-1.5c-1.3,0.1-1.9-0.3-2.2-1.5
					c-0.4-0.3-3.8-0.3-3-1.5c-1.3,0.1-1.9-0.3-2.2-1.5c-2.6,0.4-0.4-1.1-3-0.8v-0.8h-1.5V171H331v-0.8h-1.5v-0.8H328v-0.8h-1.5V168
					H325v-0.8h-1.5c0.6-1.6-3.7-0.6-3-2.2H319v-0.8h-2.2c0.6-1.6-3.7-0.6-3-2.2h-2.2v-0.8h-1.5v-0.8c-0.4-0.3-4.6-0.2-3.8-1.5h-2.2
					v-0.8h-1.5c0.8-1.9-5.3-0.4-4.5-2.2h-2.2v-0.8h-2.2v-0.8h-2.2v-0.8c-0.3-0.4-6.3,0-5.2-1.5c-0.4-0.3-7,0-6-1.5l-20.2-3.8
					L254.6,0h-57.8c-1.1,5.4,0.4,20.5-1.5,24c-0.3,40.7-3.2,81.8-3.8,123c-12.5,1.2-25.4,5.1-34.5,8.2c-0.5,0-2.8-0.5-2.2,0.8
					c-0.5,0-2.8-0.5-2.2,0.8h-2.2c0.3,1.2-0.9,0.6-1.5,0.8c0.9,1.2-4.1,1.2-4.5,1.5c0.4,1.5-0.9,0.4-1.5,0.8
					c0.6,1.5-1.7,0.4-2.2,0.8c0.4,1.5-0.9,0.4-1.5,0.8c0.6,1.5-1.7,0.4-2.2,0.8c0.7,1.7-3.7,0.6-3,2.2c-0.4,0.5-2.9-0.8-2.2,0.8
					l-4.5,1.5c0.4,1.5-0.9,0.4-1.5,0.8c0.4,1.5-0.9,0.4-1.5,0.8c0.4,1.5-0.9,0.4-1.5,0.8c0.4,1.5-0.9,0.4-1.5,0.8
					c0.4,1.5-0.9,0.4-1.5,0.8c0.4,1.5-0.9,0.4-1.5,0.8c0.4,1.5-0.9,0.4-1.5,0.8c0,1.7-4.1,2.6-5.2,3c-0.1,1.8-2.6,1.9-3.8,2.2
					c-0.1,1.8-2.6,1.9-3.8,2.2c0.6,1.1-1.8,1.1-2.2,1.5l-0.8,1.5c-2.5-0.5-1.3,2-3.8,1.5c-0.7,1.4-1.4,2.5-3,2.2
					c-0.5,1.2-1,1.8-2.2,1.5c-0.7,1.4-1.4,2.5-3,2.2c-0.9,1.9-2.5,3.2-4.5,3.8c-0.5,1.2-1,1.7-2.2,1.5c-1.3,0.5-2.6,4.9-4.5,3.8
					c-1.6,1.2-4.4,6.3-6.8,6c-5.7,6.2-12.8,14.1-18.7,19.5c0.8,1.6-2.2,3-3,3.8c0.7,1.6-1.4,2.3-2.2,3c0.7,1.6-1.4,2.3-2.2,3
					c0.7,1.6-1.4,2.3-2.2,3c0.5,1.5-0.6,1.7-1.5,2.2c-0.3,0.6-0.5,2.7-1.5,2.2c0.7,1.6-1.4,2.3-2.2,3c-0.6,1.3-0.4,3.6-2.2,3.8
					l-0.8,2.2h-0.8v1.5h-0.8v1.5c-1.8,0-2.5,4.1-3,5.2c-0.9,0.5-1.9,0.8-1.5,2.2h-0.8v1.5c-1.5-0.4,0,1.9-1.5,1.5
					c0.3,2.5-1.1,0.5-0.8,3c-1.5-0.4,0,1.9-1.5,1.5c0.3,2.5-1.1,0.5-0.8,3c-1.5-0.4,0,1.9-1.5,1.5v1.5c-1.2-0.9-1.8,4.2-2.2,4.5
					c-1.2-0.5-0.7,1.7-0.8,2.2c-1.5-0.4,0,1.9-1.5,1.5v2.2h-0.8v1.5h-0.8v2.2h-0.8v1.5h-0.8L13,295c-1.2-0.5-0.7,1.7-0.8,2.2
					c-1.2-0.5-0.7,1.7-0.8,2.2c-1.2-0.5-0.7,1.7-0.8,2.2c-1.2-0.5-0.7,1.7-0.8,2.2c-1.5-1-1.1,5.7-1.5,6c-1.2-0.5-0.7,1.7-0.8,2.2
					c-1.6-1.1-1,6.5-1.5,6.8c-1.3-0.7-0.6,2.5-0.8,3c-1.5-0.8-0.5,3.3-0.8,3.8c-1.5-0.8-0.5,3.3-0.8,3.8c-1.6-1-0.4,4.9-0.8,5.2
					C1,335.9,1.7,352.9,1,357c-2.8,14,0.8,31.3,1.5,45c0.5,3.5,7.3,32.1,7.5,32.2c1.2-1,2,7.2,2.2,7.5c1.4-0.5,0.5,1,0.8,1.5
					c1.2-0.8,1.2,4.1,1.5,4.5c1.6-0.5-0.1,2,1.5,1.5l0.8,4.5c1.2-0.7,1.2,2.5,1.5,3c1.2-0.8,1.2,3.3,1.5,3.8c1-0.8,1.9,4.1,2.2,4.5
					c1.3-0.5,0.5,1,0.8,1.5c1.3-0.5,0.5,1,0.8,1.5c1.3-0.5,0.5,1,0.8,1.5c1.3-0.5,0.5,1,0.8,1.5c1.3-0.6,0.5,1,0.8,1.5
					c1.6-0.5-0.1,2,1.5,1.5c0.1,0.5-0.5,1.9,0.8,1.5c0.1,0.5-0.5,1.9,0.8,1.5v1.5l1.5,0.8c1,0.7,0.8,5.6,3,5.2v1.5l1.5,0.8
					c-0.2,3.2,2,0.7,2.2,5.2c1.3,0.4,1.7,1,1.5,2.2c0.9,0.8,2.8,1.5,2.2,3c1.3,0.4,1.7,1,1.5,2.2c0.9,0.8,2.8,1.5,2.2,3
					c0.9,0.8,2.8,1.5,2.2,3c0.8,0.9,3.8,2.2,3,3.8c0.7,1,4.7,2.9,3.8,4.5c3.2,4,24,21.4,21,24c-1-0.7-0.8,1.1-0.8,1.5l-1.5,0.8
					l-0.8,3l-1.5,0.8v1.5l-1.5,0.8l-0.8,2.2H67l-0.8,3c-1-0.6-1.2,1.8-1.5,2.2l-1.5,0.8v1.5c-1.5,0-2,2.6-2.2,3.8
					c-1.2,0-2.1,2-2.2,3c-1.2-0.7-1.2,2.6-1.5,3l-1.5,0.8v1.5l-1.5,0.8v1.5c-2.5,0.3-1.3,4.2-3.8,4.5v1.5L49,577l-0.8,3
					c-2.6,0.6-0.4,2.2-3,3c-0.2,0.2-0.5,3.1-1.5,2.2l-0.8,3h-0.8l-0.8,2.2l-1.5,0.8v1.5l-1.5,0.8l-0.8,3c-1.2-0.1-2.1,2-2.2,3
					c-0.9-0.8-0.8,1.2-0.8,1.5c-2.6,0.9-2.5,5.5-5.2,6.8l-0.8,2.2l2.2,1.5v0.8c1.6-0.9,2.3,1.5,3,2.2c1.6-0.8,3,2.2,3.8,3
					c2.2-0.8,2.2,3,4.5,2.2c0.5,0.9,1.5,2.8,3,2.2l1.5,2.2c1.6-0.9,2.3,1.5,3,2.2c2.5-0.5,1.3,2,3.8,1.5l1.5,2.2
					c1.5-0.4,1.8,0.5,2.2,1.5l2.2,0.8v0.8l3,0.8l0.8,1.5l3,0.8l0.8,1.5c1.1,0.5,5.3,1.3,5.2,3c0.3,0.2,5.4,1.1,4.5,2.2H78v0.8h1.5
					c-0.8,1.7,5.3,1.3,4.5,3h2.2v0.8c0.4,0.2,3.8,0.3,3,1.5h1.5v0.8h2.2c-0.7,1.7,3.7,0.6,3,2.2l3.8,0.8c-0.5,1,1.7,0.8,2.2,0.8v0.8
					h1.5c-0.5,1,1.7,0.8,2.2,0.8v0.8c8.3,3.1,7.2,1.9,11.2-5.2c-0.3-1.4,0.3-1.9,1.5-2.2l0.8-3c1.6,0.4-0.1-1.9,1.5-1.5
					c0-0.5-0.3-2,0.8-1.5v-1.5h0.8V639h0.8v-1.5c1.7,1.1,6.2-12.3,6.8-12.8c1.6-0.4,2-2.4,2.2-3.8c1.2,0,0.6-0.6,0.8-1.5
					c1.6,0.4-0.1-1.9,1.5-1.5c0.1-0.5-0.3-2,0.8-1.5V615c1.2,0,0.6-0.6,0.8-1.5l1.5-0.8v-1.5c1.2,0,0.6-0.6,0.8-1.5
					c1.6,0.4-0.1-1.9,1.5-1.5c0.1-0.6-0.3-2,0.8-1.5v-1.5c1.1,0,0.6-0.6,0.8-1.5c1.1,0,0.6-0.6,0.8-1.5c1.3-0.5,1.7-0.8,1.5-2.2
					c1.1,0.2,0.7-0.8,0.8-1.5c1.1,0.2,0.7-0.8,0.8-1.5c1.6,0.4-0.1-1.9,1.5-1.5c0.1-1.2-0.4-1.5,0.8-1.5l1.5-4.5
					c1.3-0.6,1.7-0.7,1.5-2.2c1.6,0.4-0.1-1.9,1.5-1.5c0.1-1.1-0.4-1.6,0.8-1.5c0.4-1.5,1.1-2.2,1.5-3.8c6.6,1.5,13.3,4.6,20.2,6
					c-0.4,19.5-1.7,38.9-1.5,57.8c-1.8,8.8-1.1,30.2-1.5,40.5c-2-1.2-0.1,19.3-0.8,19.5c-1.8-1-0.2,7.9-0.7,8.2
					c1,4.7-3.2,14.5,1.5,14.2v0.8c4.9-0.5,11,1.2,15.8,0.8c-1.3,1.7,7.4,0.3,7.5,0.8c-1.3,1.7,7.4,0.3,7.5,0.8
					c-1.3,2.3,17.1,0,15.8,2.2c6.2-0.1,29.7,0.7,33-1.5c0.4-0.6,7.8,1.1,6.7-0.8c0.5-0.8,7.7,1.2,6.8-0.8c6,0,10.6-1.2,17.2-2.2
					l-5.2-140.2l20.2-6c0.4,1.2,0.8,2.8,2.2,3c0.4,0.6-0.6,1.8,0.8,1.5l1.5,4.5c1.2-0.4,0.6,0.9,0.8,1.5c1.6-0.5-0.1,2,1.5,1.5
					c-0.3,2.5,1.1,0.5,0.8,3c2.5,0.2,1.2,3.9,3,3.8c0.3,0.6-0.5,1.9,0.8,1.5c-0.3,2.5,1.1,0.5,0.8,3c1.2-0.4,0.6,0.9,0.8,1.5
					c1.2-0.4,0.6,0.9,0.8,1.5c1,0.1,1.7,1,1.6,2l0,0c0,0.1,0,0.2-0.1,0.3c1.6-0.5-0.1,2,1.5,1.5c0.3,0.5-0.5,1.9,0.8,1.5
					c0.3,0.5-0.5,1.9,0.8,1.5c0.3,0.5-0.5,2,0.8,1.5c0.3,0.5-0.5,2,0.8,1.5c0.3,0.5-0.5,2,0.8,1.5c-0.3,1,0.3,2,1.3,2.2l0,0h0.2
					c0.5,0.3,0.2,3.8,1.5,3c0.3,0.4-0.5,2,0.8,1.5c0.2,0.4-0.5,2,0.8,1.5c0.2,0.4-0.5,2,0.8,1.5c-0.3,2.5,1.1,0.5,0.8,3
					c2.5,0.5,0.6,2.4,2.2,2.2c0.2,0.4-0.5,2,0.8,1.5c0.2,0.4-0.5,2,0.8,1.5c0.2,0.4-0.5,2,0.8,1.5c0.2,0.4-0.5,2,0.8,1.5
					c0.2,0.4-0.5,2,0.8,1.5c-0.2,1,0.3,2,1.3,2.2l0,0h0.2c0.2,0.3-0.5,2,0.8,1.5c0.2,0.3-0.5,2,0.8,1.5c0.2,0.3-0.5,2,0.8,1.5
					c0.2,0.3-0.4,2.1,0.8,1.5c0.2,0.3-0.4,2.1,0.8,1.5c1.1,3.1,2.6,4.9,3.8,7.5c0.5-0.7,3.6-0.1,3-1.5h2.2c-0.5-1.3,1.7-0.5,2.2-0.8
					c-0.4-1.2,0.9-0.6,1.5-0.8c-0.5-1.3,1.7-0.5,2.2-0.8c-0.7-1.2,2.5-1.2,3-1.5c-0.5-1.3,1.7-0.5,2.2-0.8c-0.8-1.2,3.3-1.2,3.8-1.5
					c-0.4-1.2,0.9-0.6,1.5-0.8c-0.8-1.2,3.3-1.2,3.8-1.5c-0.8-1.1,4.1-1.9,4.5-2.2c-0.4-1.2,0.9-0.6,1.5-0.8c-0.5-1.6,2,0.1,1.5-1.5
					c0.5-0.3,1.9,0.5,1.5-0.8c2.5,0.3,0.5-1.1,3-0.8c-0.5-1.6,2,0.1,1.5-1.5c0.5-0.3,1.9,0.5,1.5-0.8c2.5,0.3,0.5-1.1,3-0.8
					c0.4-2.5,4.1-1.3,4.5-3.8c4.3-0.4,2.6-2.6,5.2-2.2c0.1-1,1-1.7,1.9-1.6l0,0c0.1,0,0.2,0,0.3,0.1c0.1-1,1-1.7,1.9-1.6l0,0
					c0.1,0,0.2,0,0.3,0.1c0.1-1,1-1.7,1.9-1.6l0,0c0.1,0,0.2,0,0.3,0.1c0.5-1.1,1.6-2.7,3-2.2c1-2.8,2.1-0.1,3.8-3.8
					c1,0.2,2-0.4,2.2-1.3l0,0v0.2c1.4,0.5,2.4-1.2,3-2.2c1.5,0.7,3-2.1,3.8-3c2.4,0.8,2.9-3.8,5.2-3l2.2-3c1.9,0-0.3-1.2-0.8-1.5
					c0.2-1-0.3-1.9-1.3-2.2h-0.2c-0.5-1.3-0.5-3.6-2.2-3.8c0.4-2.6-1.9-0.9-2.2-5.2c-2.7-0.8-0.4-2.2-3-3c-0.4-0.6,0.5-1.8-0.8-1.5
					c-0.6-0.5-0.3-2.8-1.5-2.2c0.4-2.5-1.9-1.4-2.2-4.5c-1.2,0.7-1.2-2.5-1.5-3c-1.4-0.2-2-1.9-2.2-3c-1.2,0.7-1.2-2.5-1.5-3
					c-1-0.1-1.7-1-1.6-1.9c0,0,0,0,0-0.1s0-0.2,0-0.3c-1-0.1-1.7-1-1.6-1.9l0,0c0-0.1,0-0.2,0.1-0.3c-1.7-0.1-2-2.5-2.2-3.8
					c-1-0.1-1.7-1-1.6-1.9l0,0c0-0.1,0-0.2,0.1-0.3c-1-0.1-1.7-1-1.6-1.9l0,0c0-0.1,0-0.2,0.1-0.3c-1.2,0.4-0.6-0.9-0.8-1.5
					c-1-0.1-1.7-1-1.6-1.9l0,0c0-0.1,0-0.2,0.1-0.3c-1-0.1-1.7-1-1.6-1.9l0,0c0-0.1,0-0.2,0.1-0.3c-1.6-0.1-2-2.5-2.2-3.8
					c-1.4-0.2-2-1.9-2.2-3c-1.2,0.7-1.2-2.5-1.5-3c-1.6,0.1-0.8-2.7-3-3c-0.6-2.9-7.4-9.6-4.5-10.5c0.5-0.8,1.6-3,3-2.2
					c0.2-1.5,3.5-3.6,4.5-4.5c1.9-2.5,22.7-24.1,21.8-26.2c0.8-0.3,2.9-1.8,2.2-3c0.8-0.3,2.9-1.8,2.2-3l1.5-0.8
					c0,0,0.6-3.1,1.5-2.2c-0.5-1,0.5-2.1,1.5-2.2c-0.5-0.9,0.5-2.1,1.5-2.2v-1.5l1.5-0.8l0.8-2.2c1,0.6,0.7-1,0.8-1.5
					c1.6,0.5-0.1-2,1.5-1.5v-1.5l1.5-0.8V477h0.8v-1.5h0.8V474h0.8v-1.5l1.5-0.8c0.1,0,0.5-4,1.5-3l1.5-4.5c1.2,0.7,0.6-1.8,0.8-2.2
					c1.6,0.7,0.6-3.7,2.2-3v-1.5h0.8c0-0.2-0.4-3.1,0.8-2.2c0.2-0.1,0.4-4,1.5-3c0.2,0,0.2-5.7,1.5-4.5v-1.5
					c1.4,0.8,1.1-4.1,1.5-4.5C449.2,416.4,456,357.4,445.1,321z M407.6,374.2c0.3,4.9-1.1,11.6-0.8,16.5c-2.1-0.9,0.6,6.1-1.5,5.2
					v5.2c-1.4-0.8-0.5,3.3-0.8,3.8c-1.4-0.8-0.5,3.3-0.8,3.8c-1.4-0.7-0.5,2.5-0.8,3c-1.9-0.7,0.4,3.7-1.5,3c-0.7,0.3,1,3.8-0.8,3
					c-0.7,0.3,1,3.8-0.8,3c-0.1,0.5,0.5,2.8-0.8,2.2v2.2c-1.4-0.6-0.5,1.8-0.8,2.2c-1.2-0.8-1.2,4.1-1.5,4.5c-1.4-0.5-0.5,1-0.8,1.5
					c-1.4-0.6-0.5,1.8-0.8,2.2c-1.4-0.5-0.5,1-0.8,1.5c-1.4-0.6-0.5,1.8-0.8,2.2c-1.2-0.7-1.2,2.5-1.5,3c-1.4-0.5-0.5,1-0.8,1.5
					c-1.4-0.6-0.5,1.8-0.8,2.2c-1.2-0.7-1.2,2.5-1.5,3c-1.4-0.5-0.5,1-0.8,1.5c-1.5,0.4-1.5,1-1.5,2.2c-1.4-0.5-0.5,1-0.8,1.5
					c-1.4-0.5-0.5,1-0.8,1.5c-1.4-0.5-0.5,1-0.8,1.5c-2.5,0.4-1.3,4.1-3.8,4.5c-0.4,4.3-2.6,2.6-2.2,5.2c-0.9,0.9-2.9,1.4-2.2,3
					c-1.4,0.4-1.6,1-1.5,2.2c-0.9,0.9-2.9,1.4-2.2,3c-0.9,0.9-2.9,1.4-2.2,3c-0.8,1-3.8,2-3,3.8c-0.6,1.2-5.6,3.5-4.5,5.2l-10.5,11
					c-1.5-0.1-6.3,9.2-8.3,7.5c-1.3,0.2-2.6,5-4.5,3.8c-0.7,1-2.1,3.6-3.8,3c-1.9,3.7-2.7,0.8-4.5,4.5c-1.4-0.6-1.8,0.7-2.2,1.5
					c-0.6,0.2-2.7,0.6-2.2,1.5c-1.4-0.6-1.8,0.7-2.2,1.5l-2.2,0.8v0.8l-3,0.8l-0.8,1.5c-0.7,0.1-1.8-0.3-1.5,0.8
					c-2.5-0.3-0.6,1.1-3,0.8v0.8h-1.5c-0.2,1.5-2.5,2.1-3.8,2.2c0.4,1.5-2,0-1.5,1.5c-0.4,0.1-5.3,1.2-4.5,2.2h-2.2
					c0.7,1.7-3.7,0.6-3,2.2h-2.2v0.8c-0.7,0-1.8-0.2-1.5,0.8h-2.2c0.4,1.5-2,0-1.5,1.5c-16.7,4.4-39.4,11.6-54.8,10.5
					c-6.5,1.7-19.9,0.6-26.2,0c0-1.2-14.9-0.1-13.5-2.2c0-1.1-9.5,0.6-8.2-1.5c-0.2-0.6-4.7,1-3.8-0.8c0-1.1-9.6-0.3-8.2-2.2h-2.2
					v-0.8c0-1-8.8-0.4-7.5-2.2h-1.5v-0.8l-4.5-0.8c0.5-1.4-1-0.5-1.5-0.8c0.6-1.4-1.8-0.5-2.2-0.8c0.5-1.4-1-0.5-1.5-0.8
					c0.6-1.4-1.8-0.5-2.2-0.8c0.7-1-4.1-2-4.5-2.2c0.5-1.4-1-0.5-1.5-0.8c0.5-1.4-1-0.5-1.5-0.8c0.5-1.6-2,0.1-1.5-1.5h-1.5
					c0.6-1.4-1-0.5-1.5-0.8c0.5-1.6-2,0.1-1.5-1.5h-1.5c0.6-1.4-1-0.5-1.5-0.8c0.6-1.4-1.1-0.5-1.5-0.8c-0.4-2.5-4.1-1.3-4.5-3.8
					c-1.6-0.4-4-1-4.5-3h-1.5V518l-2.2-0.8c-0.4-1.2-1.1-1.7-2.2-1.5c-0.1-1.5-2-1.9-3-2.2c-0.9-0.9-1.4-2.9-3-2.2
					c-1.1-0.7-2-3.9-3.8-3c-1.3-0.4-3.4-5.7-5.2-4.5l-8.2-9c-0.7-0.7-11-9.2-9.8-10.5c-0.7-0.8-4.6-2.8-3.8-4.5L81,479
					c0.5-1-1.1-1.1-1.5-1.5c0.8-1.6-1.4-2.3-2.2-3c-0.5-1.1-0.8-2.8-2.2-3c0.7-1.4-0.7-1.8-1.5-2.2c0.7-1.4-0.7-1.8-1.5-2.2
					c0.7-1.4-0.7-1.8-1.5-2.2l-0.8-2.2H69l-0.8-3c-2.4-0.4-1.3-4.1-3.8-4.5c-0.2-0.4-1.1-5.4-2.2-4.5v-1.5h-0.8v-1.5h-0.8
					c-0.2-0.4-1.1-5.4-2.2-4.5V441c-1.7,0.7-0.6-3.7-2.2-3v-2.2h-0.8v-1.5h-0.8c-0.2-0.4-0.2-5.4-1.5-4.5v-2.2h-0.8v-2.2h-0.8V423
					h-0.8v-2.2h-0.8c-0.1-0.4,0.6-3.8-0.8-3v-2.2h-0.8c-0.1-0.4,0.6-3.8-0.8-3c-0.2-0.4,0.7-4.7-0.8-3.8c-0.2-0.4,0.7-4.7-0.8-3.8
					c-0.2-0.4,0.7-4.7-0.8-3.8c0.1-3.6-1.1-8.2-0.8-12c-1.6-6.5-2.2-22.8-1.5-31.5c1.3,1.3,1.3-15.6,1.5-15.8
					c1.4,0.9,0.5-4.1,0.8-4.5c1.4,0.9,0.5-4.1,0.8-4.5c11.2-53.6,47.1-102.2,101.2-129h2.2v-0.8h1.5v-0.8c0.4-0.2,3.8-0.4,3-1.5h2.2
					V200h1.5c-0.5-1.1,1.7-0.7,2.2-0.8v-0.8h1.5c-0.9-1.4,4.1-1.1,4.5-1.5c19.3-8.3,58.8-13.4,84-8.2c0.3,0.8,6.3-1.2,5.2,0.8
					c0.3,0.7,5.5-1.1,4.5,0.8c0.4,0.5,2.9-0.8,2.2,0.8c0.3,0.7,4.7-1,3.8,0.8c0.2,0.9,7.9-0.4,6.8,1.5c0.2,0.8,6.3-0.3,5.2,1.5
					c0.4,0.5,3-0.8,2.2,0.8c0.4,0.5,3-0.8,2.2,0.8c0.4,0.5,3-0.8,2.2,0.8l4.5,0.8c-0.5,1.5,1,0.4,1.5,0.8c-0.8,1.8,5.3,0.4,4.5,2.2
					c0.2,0.9,3.9-0.1,3,1.5c0.4,0.5,3-0.8,2.2,0.8c0.1,1,5.5,0.6,4.5,2.2c0.5,0.2,1.9-0.5,1.5,0.8c0.5,0.2,1.9-0.5,1.5,0.8
					c0.5,0.2,1.9-0.6,1.5,0.8c0.5,0.2,1.9-0.6,1.5,0.8c2.5-0.3,0.5,1.1,3,0.8c0,1.8,4,2.6,5.2,3c-0.6,1.1,1.8,1.1,2.2,1.5l0.8,1.5
					c0.2,0.8,3.9-0.1,3,1.5c1.2,0.2,2.6,0.8,3,2.2c1.3-0.4,2.5,1.1,3,2.2c1.3-0.4,2.5,1.1,3,2.2c1.3-0.4,2.5,1.1,3,2.2h1.5
					c0.4,0.5,0.6,1.9,1.5,1.5c0.4,1.2,1,1.7,2.2,1.5c1.3,0.5,2.7,4.8,4.5,3.8l12,12.8c0.8,0.9,5.4,3.5,4.5,5.2
					c1.1,0.8,4.4,2.8,3.8,4.5c1.2,0.6,3.4,2.2,3,3.8c1.1,0.6,2.6,1.4,2.2,3c3.6,1.7,1,2.8,3.8,3.8l0.8,2.2h0.8
					c-0.6,1.5,0.6,1.7,1.5,2.2l0.8,2.2h0.8l1.5,4.5c1.8,0,2.5,4.1,3,5.2c1.5,0.2,2.1,2.5,2.2,3.8c1.7-0.8,1.3,5.3,3,4.5v2.2h0.8
					c0.1,0.7-0.3,1.8,0.8,1.5l0.8,3c1.1-0.5,0.7,1.7,0.8,2.2c1.6-0.7,0.6,3.7,2.2,3c0.2,0.4,0.2,5.4,1.5,4.5
					c0.1,0.7-0.3,1.8,0.8,1.5v2.2h0.8v2.2c1.1-0.5,0.7,1.7,0.8,2.2c1.3-0.7,0.6,2.5,0.8,3c1.1-0.5,0.7,1.7,0.8,2.2
					c1.3-0.7,0.6,2.5,0.8,3c1.9-0.7-0.4,3.7,1.5,3C405.4,340,408.4,357.9,407.6,374.2z"/>
				<path class="st0" d="M371.6,354v-6h-0.8v-5.2H370V339h-0.8v-3.8h-0.8l-0.8-6h-0.8v-3H366V324h-0.8v-2.2h-0.8v-2.2h-0.8l-0.8-4.5
					H362v-1.5h-0.8v-2.2h-0.8l-1.5-4.5h-0.8v-1.5h-0.8v-1.5h-0.8v-1.5h-0.8v-1.5h-0.8v-1.5h-0.8v-1.5h-0.8v-1.5l-1.5-0.8l-0.8-3
					h-0.8l-0.8-2.2l-1.5-0.8V288h-0.8l-0.8-2.2l-1.5-0.8v-1.5l-1.5-0.8l-0.8-2.2l-3-2.2v-1.5L335,273v-1.5l-4.5-3.8l-6.8-7.5h-1.5
					l-4.5-5.2h-1.5l-2.2-3h-1.5l-1.5-2.2h-1.5l-1.5-2.2h-1.5l-0.8-1.5h-1.5l-0.8-1.5l-2.2-0.8V243l-3-0.8
					c-20.9-13.2-47-20.7-81.8-20.2c-2.3,2-12,0.4-15.8,1.5c-3.6,1-8.6,1.9-12,3h-3l-18,6v0.8h-1.5v0.8h-2.2v0.8l-4.5,1.5v0.8h-1.5
					v0.8h-1.5v0.8l-4.5,1.5l-0.8,1.5l-3,0.8l-0.8,1.5h-1.5v0.8h-1.5l-1.5,2.2h-1.5v0.8l-2.2,0.8l-0.8,1.5h-1.5l-0.8,1.5h-0.8
					l-0.8,1.5h-1.5l-2.2,3h-1.5l-4.5,5.2h-1.5l-5.2,6l-3,2.2v1.5l-5.2,4.5v1.5l-1.5,0.8v0.8l-2.2,1.5v1.5l-2.2,1.5l-0.8,2.2
					l-1.5,0.8v1.5l-1.5,0.8l-0.8,2.2h-0.8l-0.8,3l-1.5,0.8l-0.8,3l-1.5,0.8v1.5h-0.8v1.5h-0.8v1.5h-0.8v1.5h-0.8v1.5h-0.8v1.5h-0.8
					l-1.5,4.5h-0.8v2.2H86v1.5h-0.8l-0.8,4.5h-0.8v2.2h-0.8v2.2H82v2.2h-0.8v3h-0.8l-0.8,6h-0.8l-0.8,7.5h-0.8l-0.8,13.5
					c-0.8,2.9-1.8,20.1-0.8,24h0.8v7.5h0.8v5.2H78v4.5h0.8v3.8h0.8v3h0.8l0.8,6H82v2.2h0.8v2.2h0.8v2.2h0.8l0.8,4.5H86v1.5h0.8v2.2
					h0.8l1.5,4.5h0.8v1.5h0.8v1.5h0.8v1.5h0.8v1.5h0.8v1.5h0.8v1.5h0.8v1.5h0.8l0.8,2.2l1.5,0.8l0.8,3h0.8l0.8,2.2l1.5,0.8v1.5
					l2.2,1.5v1.5l2.2,1.5v1.5l2.2,1.5v1.5l5.2,4.5v1.5l4.5,3.8l7.5,8.2h1.5l3.8,4.5h1.5l2.2,3h1.5l1.5,2.2h1.5l0.8,1.5h1.5l1.5,2.2
					h1.5l0.8,1.5l3,0.8l0.8,1.5l4.5,1.5l0.8,1.5l3,0.8v0.8h1.5v0.8l4.5,1.5v0.8h2.2v0.8h1.5v0.8h2.2v0.8h1.5v0.8l4.5,0.8v0.8h2.2
					v0.8h2.2v0.8h2.2v0.8h3v0.8h3v0.8h3v0.8h3.8v0.8h3.8v0.8l12.8,0.8v0.8h25.5v-0.8h7.5V513h5.2v-0.8h4.5v-0.8l6.8-0.8V510h3v-0.8
					l5.2-0.8v-0.8h2.2V507l4.5-0.8v-0.8h1.5v-0.8h2.2V504h1.5v-0.8l3.8-0.8v-0.8l4.5-1.5v-0.8h1.5v-0.8h1.5V498l4.5-1.5l0.8-1.5
					l3-0.8l0.8-1.5h1.5l0.8-1.5h1.5v-0.8l2.2-0.8l0.8-1.5h1.5l1.5-2.2h1.5l2.2-3h1.5l2.2-3h1.5l8.2-9l7.5-6.8v-1.5l4.5-3.8v-1.5
					l2.2-1.5l0.8-2.2l1.5-0.8v-1.5l1.5-0.8V449l2.2-1.5l0.8-3l1.5-0.8l0.8-2.2h0.8V440h0.8v-1.5h0.8V437h0.8v-1.5h0.8V434h0.8v-1.5
					h0.8V431h0.8v-1.5h0.8l1.5-4.5h0.8v-2h0.8v-1.5h0.8l0.8-4.5c5.5-13.9,8.2-28.6,8.2-43.5V354H371.6z M326.6,402.8l-0.8,4.5
					c-7.3,16.6-18.4,32.8-32.2,42.8l-3,3.8h-1.5l-0.8,1.5h-1.5l-1.5,2.2h-1.5l-0.8,1.5h-1.5l-0.8,1.5l-4.5,1.5l-0.8,1.5h-2.2
					l-0.8,1.5h-1.5v0.8l-22.5,7.5h-4.5v0.8h-5.2v0.8h-14.2c-16.7,0-27.6-2.5-39-7.5h-2.2v-0.8l-4.5-1.5v-0.8h-1.5v-0.8h-1.5v-0.8
					l-4.5-1.5v-0.8l-2.2-0.8l-0.8-1.5h-1.5v-0.8l-2.2-0.8l-0.8-1.5h-1.5l-0.8-1.5l-2.2-0.8l-3.8-4.5H154l-6.8-7.5l-4.5-3.8v-1.5
					l-3-2.2V432l-2.2-1.5l-0.8-2.2l-1.5-0.8l-0.8-3l-1.5-0.8l-0.8-2.2h-0.8l-1.5-4.5H129v-1.5h-0.8V414h-0.8l-1.5-4.5h-0.8v-2.2
					h-0.8v-1.5h-0.8v-2.2h-0.8v-2.2h-0.8v-3h-0.8v-3h-0.8v-3h-0.8v-4.5h-0.8v-4.5h-0.8v-9.8h-0.8v-11.2h0.8l0.8-13.5h0.8v-4.5h0.8
					l0.8-6h0.8V336h0.8v-2.2h0.8v-2.2h0.8l0.8-4.5h0.8l1.5-4.5h0.8V321h0.8l1.5-4.5l1.5-0.8l0.8-3h0.8l0.8-2.2l1.5-0.8v-1.5l2.2-1.5
					v-1.5l2.2-1.5v-1.5l5.2-4.5v-1.5l3-2.2l6-6.8h1.5l2.2-3h1.5l1.5-2.2h1.5l1.5-2.2h1.5l0.8-1.5l3-0.8l0.8-1.5l3-0.8l0.8-1.5
					l6.8-2.2v-0.8l3-0.8v-0.8h2.2v-0.8h1.5v-0.8h2.2V267h2.2v-0.8l5.2-0.8v-0.8l7.5-0.8V263c3.2-1,10.7,0.2,12.8-1.5
					c8.1,0,16.9-0.3,23.2,1.5h5.2l18.8,5.2v0.8h1.5v0.8h2.2v0.8l4.5,1.5v0.8h1.5v0.8l3,0.8l0.8,1.5l3,0.8l0.8,1.5l3,0.8l0.8,1.5
					l2.2,0.8l1.5,2.2h1.5l3,3.8h1.5l3,3.8l7.5,6.8v1.5l3.8,3l0.8,2.2l1.5,0.8v1.5l2.2,1.5v1.5l1.5,0.8l0.8,2.2h0.8l1.5,4.5l1.5,0.8
					l2.2,6.8h0.8l0.8,3h0.8v2.2C333.8,349.8,334.9,381.5,326.6,402.8z"/>
			</g>
		</g>
	</g>
</g>
</svg>
